<svg version="1.1" xmlns="http://www.w3.org/2000/svg"
    viewBox="0 0 1859.4662389066048 1583.465460512992" width="3718.9324778132095"
    height="3166.930921025984">
    <!-- svg-source:excalidraw -->

    <defs>
        <style class="style-fonts">
            @font-face {
            font-family: "Virgil";
            src: url("https://excalidraw.com/Virgil.woff2");
            }
            @font-face {
            font-family: "Cascadia";
            src: url("https://excalidraw.com/Cascadia.woff2");
            }
            @font-face {
            font-family: "Assistant";
            src: url("https://excalidraw.com/Assistant-Regular.woff2");
            }
        </style>

    </defs>
    <rect x="0" y="0" width="1859.4662389066048" height="1583.465460512992" fill="#ffffff"></rect>
    <g stroke-linecap="round"
        transform="translate(600.5252970712902 356.0640770697827) rotate(0 169.52252882347295 62.35311405001298)">
        <path
            d="M31.18 0 C139.72 -2.96, 246.89 -3.86, 307.87 0 C328.1 3.51, 336.24 10.04, 339.05 31.18 C339.92 44.75, 341.25 64.32, 339.05 93.53 C339.02 113.08, 331.88 128.3, 307.87 124.71 C239.97 128.79, 172.23 129.75, 31.18 124.71 C10.78 126.84, -0.99 114, 0 93.53 C-4.14 77.78, 1.31 60.67, 0 31.18 C1.63 8.99, 11.84 -3.27, 31.18 0"
            stroke="none" stroke-width="0" fill="#b2f2bb"></path>
        <path
            d="M31.18 0 C92.61 -0.52, 153.53 -0.65, 307.87 0 M31.18 0 C140.1 -0.45, 247.46 -0.57, 307.87 0 M307.87 0 C328.94 -0.77, 337.26 10.53, 339.05 31.18 M307.87 0 C329.3 -1.16, 337.01 12.6, 339.05 31.18 M339.05 31.18 C338.14 48.66, 339.77 69.11, 339.05 93.53 M339.05 31.18 C339.71 55.74, 338 79.53, 339.05 93.53 M339.05 93.53 C339.16 115.81, 326.7 125.27, 307.87 124.71 M339.05 93.53 C337.36 112.71, 328.01 126.06, 307.87 124.71 M307.87 124.71 C199.14 126.73, 93.73 126.77, 31.18 124.71 M307.87 124.71 C216.59 126.6, 124.77 126.76, 31.18 124.71 M31.18 124.71 C9.19 123.9, 1.39 115.63, 0 93.53 M31.18 124.71 C8.1 125, -0.9 113.42, 0 93.53 M0 93.53 C-0.01 75.23, -1.02 57.79, 0 31.18 M0 93.53 C-0.56 71.51, 0.37 51.72, 0 31.18 M0 31.18 C0.99 12.09, 10.07 0.38, 31.18 0 M0 31.18 C0.49 9.55, 10.68 1.71, 31.18 0"
            stroke="#1e1e1e" stroke-width="2" fill="none"></path>
    </g>
    <g transform="translate(623.5634508947628 406.4171911197957) rotate(0 146.484375 12)">
        <text x="146.484375" y="0" font-family="Cascadia, Segoe UI Emoji" font-size="20px"
            fill="#1e1e1e" text-anchor="middle" style="white-space: pre;" direction="ltr"
            dominant-baseline="text-before-edge">Test Generation Orchestra</text>
    </g>
    <g stroke-linecap="round">
        <g
            transform="translate(457.6327440400105 122.23989938223414) rotate(0 70.1472533062647 0.6495116046876461)">
            <path
                d="M-0.22 -0.64 C22.86 -0.19, 116.18 1.67, 139.48 2.16 M-1.79 1.63 C21.58 1.81, 118.38 0.68, 141.76 0.49"
                stroke="#1e1e1e" stroke-width="2" fill="none"></path>
        </g>
        <g
            transform="translate(457.6327440400105 122.23989938223414) rotate(0 70.1472533062647 0.6495116046876461)">
            <path
                d="M118.36 9.27 C126.3 4.59, 137.79 1.42, 141.76 0.49 M118.36 9.27 C126.36 6.27, 136.03 2.33, 141.76 0.49"
                stroke="#1e1e1e" stroke-width="2" fill="none"></path>
        </g>
        <g
            transform="translate(457.6327440400105 122.23989938223414) rotate(0 70.1472533062647 0.6495116046876461)">
            <path
                d="M118.19 -7.83 C126.12 -5.96, 137.67 -2.56, 141.76 0.49 M118.19 -7.83 C126.41 -4.25, 136.14 -1.61, 141.76 0.49"
                stroke="#1e1e1e" stroke-width="2" fill="none"></path>
        </g>
    </g>
    <mask></mask>
    <g transform="translate(496.60344032126886 78.07311026347497) rotate(0 23.4375 12)">
        <text x="0" y="0" font-family="Cascadia, Segoe UI Emoji" font-size="20px" fill="#1e1e1e"
            text-anchor="start" style="white-space: pre;" direction="ltr"
            dominant-baseline="text-before-edge">Uses</text>
    </g>
    <g stroke-linecap="round"
        transform="translate(388.7845139431215 93.66138877597822) rotate(0 33.12509183906923 26.629975792193022)">
        <path
            d="M13.31 0 C25.61 1.1, 37.29 -0.28, 52.94 0 M13.31 0 C27.46 0.38, 39.09 -0.76, 52.94 0 M52.94 0 C62.62 -0.88, 66.54 2.68, 66.25 13.31 M52.94 0 C63.78 2.17, 64.4 2.73, 66.25 13.31 M66.25 13.31 C64.71 22.72, 67.75 29.52, 66.25 39.94 M66.25 13.31 C67.1 24.08, 65.6 33.05, 66.25 39.94 M66.25 39.94 C68.1 47.73, 61.54 53.41, 52.94 53.26 M66.25 39.94 C68.37 47.74, 61.75 53.28, 52.94 53.26 M52.94 53.26 C43.38 52.13, 30.07 52.92, 13.31 53.26 M52.94 53.26 C37.7 53.69, 24.05 53.01, 13.31 53.26 M13.31 53.26 C5.84 51.52, 0.39 48.04, 0 39.94 M13.31 53.26 C6.41 54.76, 1.55 47.72, 0 39.94 M0 39.94 C1.22 34.15, 0.84 27.28, 0 13.31 M0 39.94 C-0.81 32.42, 0.27 26.79, 0 13.31 M0 13.31 C0.12 5.22, 5.65 0.17, 13.31 0 M0 13.31 C2.07 3.49, 4.24 0.87, 13.31 0"
            stroke="#1e1e1e" stroke-width="2" fill="none"></path>
    </g>
    <g transform="translate(416.05023078219074 108.29136456817125) rotate(0 5.859375 12)">
        <text x="5.859375" y="0" font-family="Cascadia, Segoe UI Emoji" font-size="20px"
            fill="#1e1e1e" text-anchor="middle" style="white-space: pre;" direction="ltr"
            dominant-baseline="text-before-edge">A</text>
    </g>
    <g stroke-linecap="round"
        transform="translate(598.5767622572275 90.41383075254004) rotate(0 33.12509183906923 26.629975792193022)">
        <path
            d="M13.31 0 C25.98 -1.46, 40.41 1.02, 52.94 0 M13.31 0 C23.81 0.26, 33 1.03, 52.94 0 M52.94 0 C60.07 0.39, 65.47 6.15, 66.25 13.31 M52.94 0 C63.31 1.55, 65.15 2.33, 66.25 13.31 M66.25 13.31 C66.23 21, 64.91 26.31, 66.25 39.94 M66.25 13.31 C65.3 23.93, 66.44 33.64, 66.25 39.94 M66.25 39.94 C67.03 50.03, 61.98 55.06, 52.94 53.26 M66.25 39.94 C65.3 48.63, 62.69 54.87, 52.94 53.26 M52.94 53.26 C41.9 53.88, 34.49 54.89, 13.31 53.26 M52.94 53.26 C41.68 53.04, 31.88 52.65, 13.31 53.26 M13.31 53.26 C3.88 53.89, 1.31 50.63, 0 39.94 M13.31 53.26 C5.71 52.84, 0.51 50.16, 0 39.94 M0 39.94 C1.08 33.25, 2.02 27.29, 0 13.31 M0 39.94 C0.42 33.43, 0.07 26.27, 0 13.31 M0 13.31 C-0.65 6.29, 5.78 1.97, 13.31 0 M0 13.31 C0.16 5.89, 2.42 1.72, 13.31 0"
            stroke="#1e1e1e" stroke-width="2" fill="none"></path>
    </g>
    <g transform="translate(625.8424790962968 105.04380654473306) rotate(0 5.859375 12)">
        <text x="5.859375" y="0" font-family="Cascadia, Segoe UI Emoji" font-size="20px"
            fill="#1e1e1e" text-anchor="middle" style="white-space: pre;" direction="ltr"
            dominant-baseline="text-before-edge">B</text>
    </g>
    <g stroke-linecap="round">
        <g
            transform="translate(810.6423011877405 121.59038777754652) rotate(0 70.1472533062647 0.6495116046876461)">
            <path
                d="M-0.19 1.12 C23.08 1.38, 116.13 0.29, 139.63 0.47 M-1.74 0.67 C21.92 1.15, 118.31 1.63, 141.99 1.57"
                stroke="#1e1e1e" stroke-width="2" fill="none"></path>
        </g>
        <g
            transform="translate(810.6423011877405 121.59038777754652) rotate(0 70.1472533062647 0.6495116046876461)">
            <path d="M140.22 3.15 L128.33 5.98 L126.52 -3.31 L142.28 2.56" stroke="none"
                stroke-width="0" fill="#1e1e1e" fill-rule="evenodd"></path>
            <path
                d="M141.99 1.57 C139.25 2.61, 132.71 6, 128.38 7.88 M141.99 1.57 C137.39 4.41, 132.42 5.88, 128.38 7.88 M128.38 7.88 C127.56 4.04, 127.77 -1.44, 128.41 -4.8 M128.38 7.88 C128.27 3.21, 127.8 -1.53, 128.41 -4.8 M128.41 -4.8 C132.48 -4.37, 136.12 -2.44, 141.99 1.57 M128.41 -4.8 C134.09 -2.08, 138.23 0.17, 141.99 1.57 M141.99 1.57 C141.99 1.57, 141.99 1.57, 141.99 1.57 M141.99 1.57 C141.99 1.57, 141.99 1.57, 141.99 1.57"
                stroke="#1e1e1e" stroke-width="2" fill="none"></path>
        </g>
    </g>
    <mask></mask>
    <g transform="translate(819.7354636533673 78.72262186816262) rotate(0 58.59375 12)">
        <text x="0" y="0" font-family="Cascadia, Segoe UI Emoji" font-size="20px" fill="#1e1e1e"
            text-anchor="start" style="white-space: pre;" direction="ltr"
            dominant-baseline="text-before-edge">Implements</text>
    </g>
    <g stroke-linecap="round"
        transform="translate(741.7940710908515 93.0118771712906) rotate(0 33.12509183906923 26.629975792193022)">
        <path
            d="M13.31 0 C24.44 1.28, 34.41 0.93, 52.94 0 M13.31 0 C27.67 0.14, 41.13 -0.4, 52.94 0 M52.94 0 C62.72 -1.02, 65.47 5.56, 66.25 13.31 M52.94 0 C63.31 -2.13, 66.09 3.88, 66.25 13.31 M66.25 13.31 C67.56 19.29, 66.72 23.29, 66.25 39.94 M66.25 13.31 C65.16 22.9, 67 31.86, 66.25 39.94 M66.25 39.94 C65.66 49.66, 63.08 55.13, 52.94 53.26 M66.25 39.94 C64.84 48.58, 62.47 52.97, 52.94 53.26 M52.94 53.26 C40.6 54.95, 24.79 53.75, 13.31 53.26 M52.94 53.26 C44.27 52.62, 34.71 54.32, 13.31 53.26 M13.31 53.26 C4.73 54.25, 1.53 50.02, 0 39.94 M13.31 53.26 C5.16 55.39, 0.43 50.63, 0 39.94 M0 39.94 C1.4 32.76, -0.87 23.87, 0 13.31 M0 39.94 C-0.83 33.68, 0.29 27.88, 0 13.31 M0 13.31 C-0.11 6.05, 5.91 -1.2, 13.31 0 M0 13.31 C-2.12 5.37, 5.78 1.71, 13.31 0"
            stroke="#1e1e1e" stroke-width="2" fill="none"></path>
    </g>
    <g transform="translate(769.0597879299207 107.64185296348363) rotate(0 5.859375 12)">
        <text x="5.859375" y="0" font-family="Cascadia, Segoe UI Emoji" font-size="20px"
            fill="#1e1e1e" text-anchor="middle" style="white-space: pre;" direction="ltr"
            dominant-baseline="text-before-edge">A</text>
    </g>
    <g stroke-linecap="round"
        transform="translate(951.5863194049571 89.76431914785242) rotate(0 33.12509183906923 26.629975792193022)">
        <path
            d="M13.31 0 C29.08 1.14, 41.51 0.74, 52.94 0 M13.31 0 C25.16 -0.24, 35.7 0.82, 52.94 0 M52.94 0 C63.11 -1.85, 66.11 3.95, 66.25 13.31 M52.94 0 C59.92 -1.38, 65.37 6.13, 66.25 13.31 M66.25 13.31 C67.08 20.26, 67.77 27.92, 66.25 39.94 M66.25 13.31 C66.2 23.32, 67.13 33.43, 66.25 39.94 M66.25 39.94 C65.03 48.61, 62.39 53.01, 52.94 53.26 M66.25 39.94 C67.15 49.16, 60.95 54.52, 52.94 53.26 M52.94 53.26 C35.77 51.62, 23.46 53.34, 13.31 53.26 M52.94 53.26 C44.96 54.05, 37.47 54.15, 13.31 53.26 M13.31 53.26 C5.06 55.11, 0.37 50.39, 0 39.94 M13.31 53.26 C4.21 55.12, -1.8 50.68, 0 39.94 M0 39.94 C-1.46 32.67, 0.31 21.25, 0 13.31 M0 39.94 C-0.18 33.66, 0.61 25.16, 0 13.31 M0 13.31 C-1.84 5.25, 5.6 1.49, 13.31 0 M0 13.31 C0.79 2.76, 2.31 1.52, 13.31 0"
            stroke="#1e1e1e" stroke-width="2" fill="none"></path>
    </g>
    <g transform="translate(978.8520362440263 104.39429494004544) rotate(0 5.859375 12)">
        <text x="5.859375" y="0" font-family="Cascadia, Segoe UI Emoji" font-size="20px"
            fill="#1e1e1e" text-anchor="middle" style="white-space: pre;" direction="ltr"
            dominant-baseline="text-before-edge">B</text>
    </g>
    <g stroke-linecap="round">
        <g
            transform="translate(456.24055836500725 192.38715268849853) rotate(0 2.755964005230908 686.6727505562794)">
            <path d="M0 0 C0.92 228.89, 4.59 1144.45, 5.51 1373.35" stroke="#1e1e1e"
                stroke-width="2.5" fill="none" stroke-dasharray="8 10"></path>
        </g>
    </g>
    <mask></mask>
    <g stroke-linecap="round">
        <g
            transform="translate(480.91223143689035 191.73764108381084) rotate(0 5.99407372904443 690.8639097145906)">
            <path d="M0 0 C2 230.29, 9.99 1151.44, 11.99 1381.73" stroke="#1e1e1e"
                stroke-width="2.5" fill="none" stroke-dasharray="8 10"></path>
        </g>
    </g>
    <mask></mask>
    <g stroke-linecap="round"
        transform="translate(45.192875063361726 352.1670074416569) rotate(0 169.52252882347284 62.35311405001298)">
        <path
            d="M31.18 0 C109.58 0.53, 184.71 1.87, 307.87 0 C331.87 0.98, 338.52 13.58, 339.05 31.18 C342.18 53.57, 342.32 73.35, 339.05 93.53 C342.46 113.56, 327.41 126.66, 307.87 124.71 C246.28 125, 185.03 125.79, 31.18 124.71 C10.12 127.76, -0.17 114.69, 0 93.53 C-0.64 74.66, -0.48 56.14, 0 31.18 C1.19 7.57, 7.92 -0.16, 31.18 0"
            stroke="none" stroke-width="0" fill="#b2f2bb"></path>
        <path
            d="M31.18 0 C95.13 1.16, 158.43 -0.37, 307.87 0 M31.18 0 C133.33 1.23, 235.78 0.82, 307.87 0 M307.87 0 C327.14 0.3, 339.03 10.98, 339.05 31.18 M307.87 0 C327.16 1.44, 339.36 8.46, 339.05 31.18 M339.05 31.18 C339.62 53.13, 340.24 72.88, 339.05 93.53 M339.05 31.18 C339.91 55.3, 340.18 80.03, 339.05 93.53 M339.05 93.53 C338.29 113.24, 327.96 125.43, 307.87 124.71 M339.05 93.53 C341.33 113.79, 328.78 123.1, 307.87 124.71 M307.87 124.71 C246.08 126.12, 185.79 124.67, 31.18 124.71 M307.87 124.71 C228.35 123.04, 148.33 122.27, 31.18 124.71 M31.18 124.71 C9.1 124.99, -0.58 112.99, 0 93.53 M31.18 124.71 C10.62 125.67, -1.34 113.57, 0 93.53 M0 93.53 C-2.12 79.57, -1.67 65.2, 0 31.18 M0 93.53 C0.68 73.38, -0.57 54.32, 0 31.18 M0 31.18 C0.33 9.19, 11.18 -0.74, 31.18 0 M0 31.18 C-2.2 11.55, 11.23 0.36, 31.18 0"
            stroke="#1e1e1e" stroke-width="2" fill="none"></path>
    </g>
    <g transform="translate(97.52790388683457 402.5201214916699) rotate(0 117.1875 12)">
        <text x="117.1875" y="0" font-family="Cascadia, Segoe UI Emoji" font-size="20px"
            fill="#1e1e1e" text-anchor="middle" style="white-space: pre;" direction="ltr"
            dominant-baseline="text-before-edge">Test Suite Generator</text>
    </g>
    <g stroke-linecap="round">
        <g
            transform="translate(388.9469917835572 425.4527999970289) rotate(0 102.62283354064641 -0.6495116046876035)">
            <path
                d="M0.02 -0.27 C34.3 -0.36, 171.53 -0.2, 205.67 -0.19 M-1.43 -1.45 C32.74 -1.89, 170.72 -1.65, 204.94 -1.74"
                stroke="#1e1e1e" stroke-width="2" fill="none"></path>
        </g>
        <g
            transform="translate(388.9469917835572 425.4527999970289) rotate(0 102.62283354064641 -0.6495116046876035)">
            <path
                d="M181.45 6.82 C187.93 4.99, 197.17 1.13, 204.94 -1.74 M181.45 6.82 C189.62 2.46, 198.75 0.97, 204.94 -1.74"
                stroke="#1e1e1e" stroke-width="2" fill="none"></path>
        </g>
        <g
            transform="translate(388.9469917835572 425.4527999970289) rotate(0 102.62283354064641 -0.6495116046876035)">
            <path
                d="M181.45 -10.28 C187.98 -7.05, 197.22 -5.85, 204.94 -1.74 M181.45 -10.28 C189.78 -7.97, 198.91 -2.79, 204.94 -1.74"
                stroke="#1e1e1e" stroke-width="2" fill="none"></path>
        </g>
    </g>
    <mask></mask>
    <g stroke-linecap="round"
        transform="translate(673.2705967963034 593.7853243854571) rotate(0 98.7257639125205 40.269719490633406)">
        <path
            d="M20.13 0 C63.02 0, 105.9 0, 177.32 0 C190.74 0, 197.45 6.71, 197.45 20.13 C197.45 35.53, 197.45 50.93, 197.45 60.4 C197.45 73.83, 190.74 80.54, 177.32 80.54 C135.22 80.54, 93.12 80.54, 20.13 80.54 C6.71 80.54, 0 73.83, 0 60.4 C0 44.76, 0 29.11, 0 20.13 C0 6.71, 6.71 0, 20.13 0"
            stroke="none" stroke-width="0" fill="#ffd8a8"></path>
        <path
            d="M20.13 0 C60.42 0, 100.71 0, 177.32 0 M177.32 0 C190.74 0, 197.45 6.71, 197.45 20.13 M197.45 20.13 C197.45 31.79, 197.45 43.44, 197.45 60.4 M197.45 60.4 C197.45 73.83, 190.74 80.54, 177.32 80.54 M177.32 80.54 C140.18 80.54, 103.04 80.54, 20.13 80.54 M20.13 80.54 C6.71 80.54, 0 73.83, 0 60.4 M0 60.4 C0 48.19, 0 35.98, 0 20.13 M0 20.13 C0 6.71, 6.71 0, 20.13 0"
            stroke="#1e1e1e" stroke-width="2.5" fill="none" stroke-dasharray="8 10"></path>
    </g>
    <g transform="translate(713.4026107088239 610.0550438760905) rotate(0 58.59375 24)">
        <text x="58.59375" y="0" font-family="Cascadia, Segoe UI Emoji" font-size="20px"
            fill="#1e1e1e" text-anchor="middle" style="white-space: pre;" direction="ltr"
            dominant-baseline="text-before-edge">Hierarchy </text>
        <text x="58.59375" y="24" font-family="Cascadia, Segoe UI Emoji" font-size="20px"
            fill="#1e1e1e" text-anchor="middle" style="white-space: pre;" direction="ltr"
            dominant-baseline="text-before-edge">Analyzer</text>
    </g>
    <g stroke-linecap="round">
        <g
            transform="translate(766.9627457117595 490.40396046579235) rotate(0 1.9566269136566916 49.36288195626031)">
            <path
                d="M-1.12 -0.92 C-0.48 15.75, 2.78 82.48, 3.44 99.13 M0.5 1.2 C0.97 17.59, 1.47 80.69, 2.24 97.22"
                stroke="#1e1e1e" stroke-width="2" fill="none"></path>
        </g>
        <g
            transform="translate(766.9627457117595 490.40396046579235) rotate(0 1.9566269136566916 49.36288195626031)">
            <path
                d="M-6.9 73.95 C-6.18 79.45, -1.52 84.64, 2.24 97.22 M-6.9 73.95 C-4.54 82.19, -1.53 89.16, 2.24 97.22"
                stroke="#1e1e1e" stroke-width="2" fill="none"></path>
        </g>
        <g
            transform="translate(766.9627457117595 490.40396046579235) rotate(0 1.9566269136566916 49.36288195626031)">
            <path
                d="M10.2 73.52 C6.36 78.98, 6.45 84.28, 2.24 97.22 M10.2 73.52 C7.08 81.78, 4.61 88.88, 2.24 97.22"
                stroke="#1e1e1e" stroke-width="2" fill="none"></path>
        </g>
    </g>
    <mask></mask>
    <g stroke-linecap="round"
        transform="translate(563.0327852242776 750.9222380845849) rotate(0 98.7257639125205 41)">
        <path
            d="M20.5 0 C54.02 0, 87.53 0, 176.95 0 C190.62 0, 197.45 6.83, 197.45 20.5 C197.45 33.9, 197.45 47.31, 197.45 61.5 C197.45 75.17, 190.62 82, 176.95 82 C133.28 82, 89.61 82, 20.5 82 C6.83 82, 0 75.17, 0 61.5 C0 49.37, 0 37.24, 0 20.5 C0 6.83, 6.83 0, 20.5 0"
            stroke="none" stroke-width="0" fill="#ffd8a8"></path>
        <path
            d="M20.5 0 C80.54 0, 140.57 0, 176.95 0 M20.5 0 C52.54 0, 84.58 0, 176.95 0 M176.95 0 C190.62 0, 197.45 6.83, 197.45 20.5 M176.95 0 C190.62 0, 197.45 6.83, 197.45 20.5 M197.45 20.5 C197.45 34.57, 197.45 48.64, 197.45 61.5 M197.45 20.5 C197.45 33.17, 197.45 45.83, 197.45 61.5 M197.45 61.5 C197.45 75.17, 190.62 82, 176.95 82 M197.45 61.5 C197.45 75.17, 190.62 82, 176.95 82 M176.95 82 C134.98 82, 93.01 82, 20.5 82 M176.95 82 C122.11 82, 67.26 82, 20.5 82 M20.5 82 C6.83 82, 0 75.17, 0 61.5 M20.5 82 C6.83 82, 0 75.17, 0 61.5 M0 61.5 C0 45.9, 0 30.3, 0 20.5 M0 61.5 C0 45.64, 0 29.77, 0 20.5 M0 20.5 C0 6.83, 6.83 0, 20.5 0 M0 20.5 C0 6.83, 6.83 0, 20.5 0"
            stroke="#1e1e1e" stroke-width="2" fill="none"></path>
    </g>
    <g transform="translate(603.1647991367981 755.9222380845849) rotate(0 58.59375 36)">
        <text x="58.59375" y="0" font-family="Cascadia, Segoe UI Emoji" font-size="20px"
            fill="#1e1e1e" text-anchor="middle" style="white-space: pre;" direction="ltr"
            dominant-baseline="text-before-edge">Android </text>
        <text x="58.59375" y="24" font-family="Cascadia, Segoe UI Emoji" font-size="20px"
            fill="#1e1e1e" text-anchor="middle" style="white-space: pre;" direction="ltr"
            dominant-baseline="text-before-edge">Hierarchy </text>
        <text x="58.59375" y="48" font-family="Cascadia, Segoe UI Emoji" font-size="20px"
            fill="#1e1e1e" text-anchor="middle" style="white-space: pre;" direction="ltr"
            dominant-baseline="text-before-edge">Analyzer</text>
    </g>
    <g stroke-linecap="round"
        transform="translate(794.1424408310959 754.5236708258612) rotate(0 98.7257639125205 41)">
        <path
            d="M20.5 0 C76.49 0, 132.47 0, 176.95 0 C190.62 0, 197.45 6.83, 197.45 20.5 C197.45 30.05, 197.45 39.61, 197.45 61.5 C197.45 75.17, 190.62 82, 176.95 82 C140.33 82, 103.71 82, 20.5 82 C6.83 82, 0 75.17, 0 61.5 C0 48.38, 0 35.27, 0 20.5 C0 6.83, 6.83 0, 20.5 0"
            stroke="none" stroke-width="0" fill="#ffd8a8"></path>
        <path
            d="M20.5 0 C82 0, 143.5 0, 176.95 0 M20.5 0 C58.04 0, 95.58 0, 176.95 0 M176.95 0 C190.62 0, 197.45 6.83, 197.45 20.5 M176.95 0 C190.62 0, 197.45 6.83, 197.45 20.5 M197.45 20.5 C197.45 29.79, 197.45 39.09, 197.45 61.5 M197.45 20.5 C197.45 36.61, 197.45 52.72, 197.45 61.5 M197.45 61.5 C197.45 75.17, 190.62 82, 176.95 82 M197.45 61.5 C197.45 75.17, 190.62 82, 176.95 82 M176.95 82 C135.29 82, 93.62 82, 20.5 82 M176.95 82 C117.7 82, 58.45 82, 20.5 82 M20.5 82 C6.83 82, 0 75.17, 0 61.5 M20.5 82 C6.83 82, 0 75.17, 0 61.5 M0 61.5 C0 52.42, 0 43.33, 0 20.5 M0 61.5 C0 46.66, 0 31.82, 0 20.5 M0 20.5 C0 6.83, 6.83 0, 20.5 0 M0 20.5 C0 6.83, 6.83 0, 20.5 0"
            stroke="#1e1e1e" stroke-width="2" fill="none"></path>
    </g>
    <g transform="translate(834.2744547436164 759.5236708258612) rotate(0 58.59375 36)">
        <text x="58.59375" y="0" font-family="Cascadia, Segoe UI Emoji" font-size="20px"
            fill="#1e1e1e" text-anchor="middle" style="white-space: pre;" direction="ltr"
            dominant-baseline="text-before-edge">iOS</text>
        <text x="58.59375" y="24" font-family="Cascadia, Segoe UI Emoji" font-size="20px"
            fill="#1e1e1e" text-anchor="middle" style="white-space: pre;" direction="ltr"
            dominant-baseline="text-before-edge">Hierarchy </text>
        <text x="58.59375" y="48" font-family="Cascadia, Segoe UI Emoji" font-size="20px"
            fill="#1e1e1e" text-anchor="middle" style="white-space: pre;" direction="ltr"
            dominant-baseline="text-before-edge">Analyzer</text>
    </g>
    <g stroke-linecap="round">
        <g
            transform="translate(875.395968555194 750.9139773419464) rotate(0 -15.7997519963576 -36.85189570613085)">
            <path
                d="M0.63 0.41 C-4.38 -11.93, -25.89 -61.63, -31.09 -73.89 M-0.5 -0.42 C-5.53 -12.59, -26.72 -59.98, -31.78 -72.44"
                stroke="#1e1e1e" stroke-width="2" fill="none"></path>
        </g>
        <g
            transform="translate(875.395968555194 750.9139773419464) rotate(0 -15.7997519963576 -36.85189570613085)">
            <path d="M-29.86 -72.52 L-21.57 -61.25 L-32.06 -58.2 L-31.02 -73.52" stroke="none"
                stroke-width="0" fill="#1e1e1e" fill-rule="evenodd"></path>
            <path
                d="M-31.78 -72.44 C-28.89 -69.76, -27.27 -67.03, -20.6 -62.44 M-31.78 -72.44 C-27.32 -68.92, -23.83 -65.56, -20.6 -62.44 M-20.6 -62.44 C-24.26 -61.82, -27.92 -57.98, -32.25 -57.45 M-20.6 -62.44 C-23.36 -61.29, -25.41 -60.43, -32.25 -57.45 M-32.25 -57.45 C-31.75 -64.12, -32.61 -66.68, -31.78 -72.44 M-32.25 -57.45 C-32.13 -63.5, -31.22 -68.68, -31.78 -72.44 M-31.78 -72.44 C-31.78 -72.44, -31.78 -72.44, -31.78 -72.44 M-31.78 -72.44 C-31.78 -72.44, -31.78 -72.44, -31.78 -72.44"
                stroke="#1e1e1e" stroke-width="2" fill="none"></path>
        </g>
    </g>
    <mask></mask>
    <g stroke-linecap="round">
        <g
            transform="translate(683.4510734795663 746.6052984496911) rotate(0 16.470473861679466 -34.40166773080506)">
            <path
                d="M0.16 0.98 C5.73 -10.25, 26.91 -56.74, 32.31 -68.32 M-1.21 0.44 C4.85 -11.07, 29.22 -58.94, 34.69 -70.2"
                stroke="#1e1e1e" stroke-width="2" fill="none"></path>
        </g>
        <g
            transform="translate(683.4510734795663 746.6052984496911) rotate(0 16.470473861679466 -34.40166773080506)">
            <path d="M35.02 -69.56 L32.78 -54 L22.75 -60.46 L35.42 -70.26" stroke="none"
                stroke-width="0" fill="#1e1e1e" fill-rule="evenodd"></path>
            <path
                d="M34.69 -70.2 C35.71 -67.86, 35 -64.42, 34.28 -55.2 M34.69 -70.2 C34.87 -65.97, 34.52 -60.4, 34.28 -55.2 M34.28 -55.2 C31.54 -56.58, 28.07 -58.11, 22.94 -60.87 M34.28 -55.2 C31.58 -55.84, 29.87 -58.21, 22.94 -60.87 M22.94 -60.87 C26.37 -63.74, 30.58 -66.62, 34.69 -70.2 M22.94 -60.87 C26.99 -64.21, 32.32 -68.02, 34.69 -70.2 M34.69 -70.2 C34.69 -70.2, 34.69 -70.2, 34.69 -70.2 M34.69 -70.2 C34.69 -70.2, 34.69 -70.2, 34.69 -70.2"
                stroke="#1e1e1e" stroke-width="2" fill="none"></path>
        </g>
    </g>
    <mask></mask>
    <g stroke-linecap="round">
        <g
            transform="translate(878.5162638775969 637.9521135042158) rotate(0 143.4930964434127 149.25769328596306)">
            <path
                d="M1.11 -0.14 C42.25 4.23, 200.2 -23.03, 247.78 26.6 C295.35 76.22, 280.09 252.14, 286.54 297.61 M0.23 -1.26 C41.1 3.23, 199.1 -22.18, 246.65 27.78 C294.2 77.73, 278.91 253.53, 285.54 298.45"
                stroke="#1e1e1e" stroke-width="2" fill="none"></path>
        </g>
        <g
            transform="translate(878.5162638775969 637.9521135042158) rotate(0 143.4930964434127 149.25769328596306)">
            <path
                d="M276.2 275.26 C279.56 283.37, 282.18 291.94, 285.54 298.45 M276.2 275.26 C278.9 281.01, 280.8 286.47, 285.54 298.45"
                stroke="#1e1e1e" stroke-width="2" fill="none"></path>
        </g>
        <g
            transform="translate(878.5162638775969 637.9521135042158) rotate(0 143.4930964434127 149.25769328596306)">
            <path
                d="M293.29 274.68 C290.2 283.17, 286.37 291.95, 285.54 298.45 M293.29 274.68 C292.15 280.68, 290.21 286.27, 285.54 298.45"
                stroke="#1e1e1e" stroke-width="2" fill="none"></path>
        </g>
    </g>
    <mask></mask>
    <g stroke-linecap="round"
        transform="translate(1061.6785363995104 941.6635929136429) rotate(0 98.7257639125205 40.269719490633406)">
        <path
            d="M20.13 0 C71.44 0, 122.75 0, 177.32 0 C190.74 0, 197.45 6.71, 197.45 20.13 C197.45 33.99, 197.45 47.84, 197.45 60.4 C197.45 73.83, 190.74 80.54, 177.32 80.54 C132.02 80.54, 86.73 80.54, 20.13 80.54 C6.71 80.54, 0 73.83, 0 60.4 C0 49.3, 0 38.19, 0 20.13 C0 6.71, 6.71 0, 20.13 0"
            stroke="none" stroke-width="0" fill="#a5d8ff"></path>
        <path
            d="M20.13 0 C65.57 0, 111.01 0, 177.32 0 M177.32 0 C190.74 0, 197.45 6.71, 197.45 20.13 M197.45 20.13 C197.45 29.21, 197.45 38.28, 197.45 60.4 M197.45 60.4 C197.45 73.83, 190.74 80.54, 177.32 80.54 M177.32 80.54 C134.56 80.54, 91.81 80.54, 20.13 80.54 M20.13 80.54 C6.71 80.54, 0 73.83, 0 60.4 M0 60.4 C0 47.77, 0 35.14, 0 20.13 M0 20.13 C0 6.71, 6.71 0, 20.13 0"
            stroke="#1e1e1e" stroke-width="2.5" fill="none" stroke-dasharray="8 10"></path>
    </g>
    <g transform="translate(1113.529300312031 969.9333124042763) rotate(0 46.875 12)">
        <text x="46.875" y="0" font-family="Cascadia, Segoe UI Emoji" font-size="20px"
            fill="#1e1e1e" text-anchor="middle" style="white-space: pre;" direction="ltr"
            dominant-baseline="text-before-edge">Strategy</text>
    </g>
    <g stroke-linecap="round">
        <g
            transform="translate(1034.3990490026285 1183.281909857443) rotate(0 40.26971949063318 -79.24041577189143)">
            <path
                d="M0.73 0.62 C14.17 -25.85, 68.46 -131.41, 81.57 -157.94 M-0.35 -0.1 C12.95 -27, 67.49 -133.58, 81.16 -159.78"
                stroke="#1e1e1e" stroke-width="2" fill="none"></path>
        </g>
        <g
            transform="translate(1034.3990490026285 1183.281909857443) rotate(0 40.26971949063318 -79.24041577189143)">
            <path d="M81.94 -159.36 L79.99 -145.97 L70.67 -151.42 L80.15 -160.21" stroke="none"
                stroke-width="0" fill="#1e1e1e" fill-rule="evenodd"></path>
            <path
                d="M81.16 -159.78 C81.81 -152.88, 81.49 -149.99, 80.56 -144.8 M81.16 -159.78 C80.7 -155.28, 80.54 -150.76, 80.56 -144.8 M80.56 -144.8 C78.57 -145.32, 75.58 -148.34, 69.29 -150.61 M80.56 -144.8 C76.43 -147.56, 72.45 -149.27, 69.29 -150.61 M69.29 -150.61 C72.03 -153.93, 77.07 -157.53, 81.16 -159.78 M69.29 -150.61 C72.35 -153.56, 74.87 -155.51, 81.16 -159.78 M81.16 -159.78 C81.16 -159.78, 81.16 -159.78, 81.16 -159.78 M81.16 -159.78 C81.16 -159.78, 81.16 -159.78, 81.16 -159.78"
                stroke="#1e1e1e" stroke-width="2" fill="none"></path>
        </g>
    </g>
    <mask></mask>
    <g stroke-linecap="round">
        <g
            transform="translate(1256.0500613626805 1182.32528289477) rotate(0 -27.778703298800792 -77.29188095782854)">
            <path
                d="M-0.63 -0.27 C-9.89 -26.22, -46.15 -129.79, -55.41 -155.64 M1.24 -1.46 C-8.18 -27.31, -46.52 -129.15, -56.28 -154.65"
                stroke="#1e1e1e" stroke-width="2" fill="none"></path>
        </g>
        <g
            transform="translate(1256.0500613626805 1182.32528289477) rotate(0 -27.778703298800792 -77.29188095782854)">
            <path d="M-57.24 -153.72 L-47.43 -143.8 L-55.95 -141.24 L-56.24 -153.75" stroke="none"
                stroke-width="0" fill="#1e1e1e" fill-rule="evenodd"></path>
            <path
                d="M-56.28 -154.65 C-53.27 -151.15, -50.9 -148.89, -45.53 -144.18 M-56.28 -154.65 C-54.48 -152.28, -51.92 -150.04, -45.53 -144.18 M-45.53 -144.18 C-48.78 -144.24, -49.65 -141.49, -57.39 -139.69 M-45.53 -144.18 C-50.6 -143.04, -54.57 -140.57, -57.39 -139.69 M-57.39 -139.69 C-58.47 -141.78, -58.04 -147.12, -56.28 -154.65 M-57.39 -139.69 C-56.58 -144.2, -56.63 -148.43, -56.28 -154.65 M-56.28 -154.65 C-56.28 -154.65, -56.28 -154.65, -56.28 -154.65 M-56.28 -154.65 C-56.28 -154.65, -56.28 -154.65, -56.28 -154.65"
                stroke="#1e1e1e" stroke-width="2" fill="none"></path>
        </g>
    </g>
    <mask></mask>
    <g stroke-linecap="round"
        transform="translate(925.2810994151055 1190.345768604328) rotate(0 98.7257639125205 41)">
        <path
            d="M20.5 0 C73.18 0, 125.86 0, 176.95 0 C190.62 0, 197.45 6.83, 197.45 20.5 C197.45 29.68, 197.45 38.86, 197.45 61.5 C197.45 75.17, 190.62 82, 176.95 82 C134.47 82, 91.99 82, 20.5 82 C6.83 82, 0 75.17, 0 61.5 C0 47.69, 0 33.87, 0 20.5 C0 6.83, 6.83 0, 20.5 0"
            stroke="none" stroke-width="0" fill="#a5d8ff"></path>
        <path
            d="M20.5 0 C77.7 0, 134.9 0, 176.95 0 M20.5 0 C82.06 0, 143.61 0, 176.95 0 M176.95 0 C190.62 0, 197.45 6.83, 197.45 20.5 M176.95 0 C190.62 0, 197.45 6.83, 197.45 20.5 M197.45 20.5 C197.45 28.83, 197.45 37.15, 197.45 61.5 M197.45 20.5 C197.45 36.61, 197.45 52.73, 197.45 61.5 M197.45 61.5 C197.45 75.17, 190.62 82, 176.95 82 M197.45 61.5 C197.45 75.17, 190.62 82, 176.95 82 M176.95 82 C138.4 82, 99.85 82, 20.5 82 M176.95 82 C134.28 82, 91.62 82, 20.5 82 M20.5 82 C6.83 82, 0 75.17, 0 61.5 M20.5 82 C6.83 82, 0 75.17, 0 61.5 M0 61.5 C0 49.66, 0 37.81, 0 20.5 M0 61.5 C0 46.41, 0 31.33, 0 20.5 M0 20.5 C0 6.83, 6.83 0, 20.5 0 M0 20.5 C0 6.83, 6.83 0, 20.5 0"
            stroke="#1e1e1e" stroke-width="2" fill="none"></path>
    </g>
    <g transform="translate(988.850613327626 1219.345768604328) rotate(0 35.15625 12)">
        <text x="35.15625" y="0" font-family="Cascadia, Segoe UI Emoji" font-size="20px"
            fill="#1e1e1e" text-anchor="middle" style="white-space: pre;" direction="ltr"
            dominant-baseline="text-before-edge">Random</text>
    </g>
    <g stroke-linecap="round"
        transform="translate(1178.5906252432828 1190.345768604328) rotate(0 98.7257639125205 41)">
        <path
            d="M20.5 0 C62.63 0, 104.76 0, 176.95 0 C190.62 0, 197.45 6.83, 197.45 20.5 C197.45 31.15, 197.45 41.8, 197.45 61.5 C197.45 75.17, 190.62 82, 176.95 82 C117.54 82, 58.13 82, 20.5 82 C6.83 82, 0 75.17, 0 61.5 C0 47.06, 0 32.62, 0 20.5 C0 6.83, 6.83 0, 20.5 0"
            stroke="none" stroke-width="0" fill="#a5d8ff"></path>
        <path
            d="M20.5 0 C61.68 0, 102.86 0, 176.95 0 M20.5 0 C59.79 0, 99.07 0, 176.95 0 M176.95 0 C190.62 0, 197.45 6.83, 197.45 20.5 M176.95 0 C190.62 0, 197.45 6.83, 197.45 20.5 M197.45 20.5 C197.45 36.85, 197.45 53.2, 197.45 61.5 M197.45 20.5 C197.45 31.1, 197.45 41.69, 197.45 61.5 M197.45 61.5 C197.45 75.17, 190.62 82, 176.95 82 M197.45 61.5 C197.45 75.17, 190.62 82, 176.95 82 M176.95 82 C142.31 82, 107.68 82, 20.5 82 M176.95 82 C126.01 82, 75.06 82, 20.5 82 M20.5 82 C6.83 82, 0 75.17, 0 61.5 M20.5 82 C6.83 82, 0 75.17, 0 61.5 M0 61.5 C0 46.79, 0 32.08, 0 20.5 M0 61.5 C0 52.81, 0 44.12, 0 20.5 M0 20.5 C0 6.83, 6.83 0, 20.5 0 M0 20.5 C0 6.83, 6.83 0, 20.5 0"
            stroke="#1e1e1e" stroke-width="2" fill="none"></path>
    </g>
    <g transform="translate(1212.8632641558033 1219.345768604328) rotate(0 64.453125 12)">
        <text x="64.453125" y="0" font-family="Cascadia, Segoe UI Emoji" font-size="20px"
            fill="#1e1e1e" text-anchor="middle" style="white-space: pre;" direction="ltr"
            dominant-baseline="text-before-edge">ViewRanking</text>
    </g>
    <g stroke-linecap="round">
        <g
            transform="translate(875.918217458845 621.0648117823372) rotate(0 366.73541779022594 158.3508557515899)">
            <path
                d="M1.15 0.79 C107.89 5.39, 517.41 -25.33, 639.6 27.21 C761.79 79.76, 718.61 267.72, 734.29 316.09 M0.29 0.16 C107.5 5.01, 519.65 -24.01, 641.93 28.81 C764.2 81.63, 718.6 269.35, 733.96 317.08"
                stroke="#1e1e1e" stroke-width="2" fill="none"></path>
        </g>
        <g
            transform="translate(875.918217458845 621.0648117823372) rotate(0 366.73541779022594 158.3508557515899)">
            <path
                d="M724.29 294.03 C727.72 297.94, 728.76 305.74, 733.96 317.08 M724.29 294.03 C727.36 298.9, 729.36 304.46, 733.96 317.08"
                stroke="#1e1e1e" stroke-width="2" fill="none"></path>
        </g>
        <g
            transform="translate(875.918217458845 621.0648117823372) rotate(0 366.73541779022594 158.3508557515899)">
            <path
                d="M741.37 293.21 C740.93 297.47, 738.11 305.45, 733.96 317.08 M741.37 293.21 C740.19 298.38, 737.94 304.15, 733.96 317.08"
                stroke="#1e1e1e" stroke-width="2" fill="none"></path>
        </g>
    </g>
    <mask></mask>
    <g stroke-linecap="round"
        transform="translate(1504.6454507964759 945.5606625417686) rotate(0 98.7257639125205 40.269719490633406)">
        <path
            d="M20.13 0 C57.92 0, 95.7 0, 177.32 0 C190.74 0, 197.45 6.71, 197.45 20.13 C197.45 35.83, 197.45 51.53, 197.45 60.4 C197.45 73.83, 190.74 80.54, 177.32 80.54 C119.85 80.54, 62.38 80.54, 20.13 80.54 C6.71 80.54, 0 73.83, 0 60.4 C0 49.06, 0 37.72, 0 20.13 C0 6.71, 6.71 0, 20.13 0"
            stroke="none" stroke-width="0" fill="#ffec99"></path>
        <path
            d="M20.13 0 C56.72 0, 93.31 0, 177.32 0 M177.32 0 C190.74 0, 197.45 6.71, 197.45 20.13 M197.45 20.13 C197.45 32.71, 197.45 45.29, 197.45 60.4 M197.45 60.4 C197.45 73.83, 190.74 80.54, 177.32 80.54 M177.32 80.54 C141.22 80.54, 105.13 80.54, 20.13 80.54 M20.13 80.54 C6.71 80.54, 0 73.83, 0 60.4 M0 60.4 C0 49.57, 0 38.73, 0 20.13 M0 20.13 C0 6.71, 6.71 0, 20.13 0"
            stroke="#1e1e1e" stroke-width="2.5" fill="none" stroke-dasharray="8 10"></path>
    </g>
    <g transform="translate(1515.4805897089964 961.830382032402) rotate(0 87.890625 24)">
        <text x="87.890625" y="0" font-family="Cascadia, Segoe UI Emoji" font-size="20px"
            fill="#1e1e1e" text-anchor="middle" style="white-space: pre;" direction="ltr"
            dominant-baseline="text-before-edge">Disambiguation </text>
        <text x="87.890625" y="24" font-family="Cascadia, Segoe UI Emoji" font-size="20px"
            fill="#1e1e1e" text-anchor="middle" style="white-space: pre;" direction="ltr"
            dominant-baseline="text-before-edge">Rule</text>
    </g>
    <g stroke-linecap="round">
        <g
            transform="translate(1576.7730174432932 1349.5568806574774) rotate(0 2.5487431645747165 -156.53229672972003)">
            <path
                d="M0.95 -0.8 C2.02 -52.96, 4.81 -260.64, 5.32 -312.67 M-0.01 1.4 C1.01 -51.16, 3.44 -262.42, 4.48 -314.59"
                stroke="#1e1e1e" stroke-width="2" fill="none"></path>
        </g>
        <g
            transform="translate(1576.7730174432932 1349.5568806574774) rotate(0 2.5487431645747165 -156.53229672972003)">
            <path d="M3.83 -314.74 L9.75 -301.75 L-2.07 -301.78 L6.26 -316.35" stroke="none"
                stroke-width="0" fill="#1e1e1e" fill-rule="evenodd"></path>
            <path
                d="M4.48 -314.59 C4.8 -311.5, 7.58 -310.31, 10.62 -300.9 M4.48 -314.59 C7.05 -310.35, 8.34 -305.89, 10.62 -300.9 M10.62 -300.9 C7.25 -299.59, 3.84 -302.14, -2.06 -301.09 M10.62 -300.9 C5.82 -300.59, 1.26 -300.69, -2.06 -301.09 M-2.06 -301.09 C1.68 -306.64, 2.27 -311.77, 4.48 -314.59 M-2.06 -301.09 C-0.46 -305.81, 2.65 -309.95, 4.48 -314.59 M4.48 -314.59 C4.48 -314.59, 4.48 -314.59, 4.48 -314.59 M4.48 -314.59 C4.48 -314.59, 4.48 -314.59, 4.48 -314.59"
                stroke="#1e1e1e" stroke-width="2" fill="none"></path>
        </g>
    </g>
    <mask></mask>
    <g stroke-linecap="round">
        <g
            transform="translate(1700.692996190226 1192.4362547686276) rotate(0 -26.62997579219268 -79.24041577189143)">
            <path
                d="M-0.94 0.84 C-9.87 -25.68, -43.97 -133.05, -52.52 -159.64 M0.76 0.24 C-8.35 -26.14, -44.2 -132.43, -53.08 -158.71"
                stroke="#1e1e1e" stroke-width="2" fill="none"></path>
        </g>
        <g
            transform="translate(1700.692996190226 1192.4362547686276) rotate(0 -26.62997579219268 -79.24041577189143)">
            <path d="M-53.65 -159.07 L-41.54 -148.19 L-53.21 -142.42 L-54.82 -157.21" stroke="none"
                stroke-width="0" fill="#1e1e1e" fill-rule="evenodd"></path>
            <path
                d="M-53.08 -158.71 C-48.07 -153.51, -46.57 -149, -42.73 -147.86 M-53.08 -158.71 C-50.64 -155.17, -47.11 -153.14, -42.73 -147.86 M-42.73 -147.86 C-47.41 -146.62, -51.99 -144.37, -54.74 -143.8 M-42.73 -147.86 C-47.51 -146.7, -52.15 -145.07, -54.74 -143.8 M-54.74 -143.8 C-52.93 -148.58, -53.37 -154.17, -53.08 -158.71 M-54.74 -143.8 C-54.87 -147.13, -54.31 -151.63, -53.08 -158.71 M-53.08 -158.71 C-53.08 -158.71, -53.08 -158.71, -53.08 -158.71 M-53.08 -158.71 C-53.08 -158.71, -53.08 -158.71, -53.08 -158.71"
                stroke="#1e1e1e" stroke-width="2" fill="none"></path>
        </g>
    </g>
    <mask></mask>
    <g stroke-linecap="round"
        transform="translate(1618.959493221499 1201.4682347886967) rotate(0 98.7257639125205 40.269719490633406)">
        <path
            d="M20.13 0 C74.55 0, 128.97 0, 177.32 0 C190.74 0, 197.45 6.71, 197.45 20.13 C197.45 31.43, 197.45 42.72, 197.45 60.4 C197.45 73.83, 190.74 80.54, 177.32 80.54 C123.07 80.54, 68.82 80.54, 20.13 80.54 C6.71 80.54, 0 73.83, 0 60.4 C0 45.33, 0 30.25, 0 20.13 C0 6.71, 6.71 0, 20.13 0"
            stroke="none" stroke-width="0" fill="#ffec99"></path>
        <path
            d="M20.13 0 C63.64 0, 107.14 0, 177.32 0 M20.13 0 C54.95 0, 89.76 0, 177.32 0 M177.32 0 C190.74 0, 197.45 6.71, 197.45 20.13 M177.32 0 C190.74 0, 197.45 6.71, 197.45 20.13 M197.45 20.13 C197.45 35.23, 197.45 50.33, 197.45 60.4 M197.45 20.13 C197.45 34.44, 197.45 48.75, 197.45 60.4 M197.45 60.4 C197.45 73.83, 190.74 80.54, 177.32 80.54 M197.45 60.4 C197.45 73.83, 190.74 80.54, 177.32 80.54 M177.32 80.54 C137.81 80.54, 98.3 80.54, 20.13 80.54 M177.32 80.54 C119.7 80.54, 62.08 80.54, 20.13 80.54 M20.13 80.54 C6.71 80.54, 0 73.83, 0 60.4 M20.13 80.54 C6.71 80.54, 0 73.83, 0 60.4 M0 60.4 C0 50.58, 0 40.76, 0 20.13 M0 60.4 C0 46.63, 0 32.85, 0 20.13 M0 20.13 C0 6.71, 6.71 0, 20.13 0 M0 20.13 C0 6.71, 6.71 0, 20.13 0"
            stroke="#1e1e1e" stroke-width="2" fill="none"></path>
    </g>
    <g transform="translate(1635.6540071340196 1217.73795427933) rotate(0 82.03125 24)">
        <text x="82.03125" y="0" font-family="Cascadia, Segoe UI Emoji" font-size="20px"
            fill="#1e1e1e" text-anchor="middle" style="white-space: pre;" direction="ltr"
            dominant-baseline="text-before-edge">Sequential </text>
        <text x="82.03125" y="24" font-family="Cascadia, Segoe UI Emoji" font-size="20px"
            fill="#1e1e1e" text-anchor="middle" style="white-space: pre;" direction="ltr"
            dominant-baseline="text-before-edge">Disambiguation</text>
    </g>
    <g stroke-linecap="round"
        transform="translate(1430.601127862084 1352.1549270762278) rotate(0 155.88278512503234 50.40195358124947)">
        <path
            d="M25.2 0 C109.79 0, 194.38 0, 286.56 0 C303.37 0, 311.77 8.4, 311.77 25.2 C311.77 38.81, 311.77 52.41, 311.77 75.6 C311.77 92.4, 303.37 100.8, 286.56 100.8 C233.29 100.8, 180.02 100.8, 25.2 100.8 C8.4 100.8, 0 92.4, 0 75.6 C0 56.75, 0 37.89, 0 25.2 C0 8.4, 8.4 0, 25.2 0"
            stroke="none" stroke-width="0" fill="#ffec99"></path>
        <path
            d="M25.2 0 C108.62 0, 192.04 0, 286.56 0 M25.2 0 C118.76 0, 212.33 0, 286.56 0 M286.56 0 C303.37 0, 311.77 8.4, 311.77 25.2 M286.56 0 C303.37 0, 311.77 8.4, 311.77 25.2 M311.77 25.2 C311.77 35.78, 311.77 46.37, 311.77 75.6 M311.77 25.2 C311.77 44.74, 311.77 64.27, 311.77 75.6 M311.77 75.6 C311.77 92.4, 303.37 100.8, 286.56 100.8 M311.77 75.6 C311.77 92.4, 303.37 100.8, 286.56 100.8 M286.56 100.8 C223.39 100.8, 160.21 100.8, 25.2 100.8 M286.56 100.8 C213.02 100.8, 139.48 100.8, 25.2 100.8 M25.2 100.8 C8.4 100.8, 0 92.4, 0 75.6 M25.2 100.8 C8.4 100.8, 0 92.4, 0 75.6 M0 75.6 C0 64.7, 0 53.8, 0 25.2 M0 75.6 C0 64.08, 0 52.56, 0 25.2 M0 25.2 C0 8.4, 8.4 0, 25.2 0 M0 25.2 C0 8.4, 8.4 0, 25.2 0"
            stroke="#1e1e1e" stroke-width="2" fill="none"></path>
    </g>
    <g transform="translate(1475.1557879871161 1366.5568806574772) rotate(0 111.328125 36)">
        <text x="111.328125" y="0" font-family="Cascadia, Segoe UI Emoji" font-size="20px"
            fill="#1e1e1e" text-anchor="middle" style="white-space: pre;" direction="ltr"
            dominant-baseline="text-before-edge">Id, Text, </text>
        <text x="111.328125" y="24" font-family="Cascadia, Segoe UI Emoji" font-size="20px"
            fill="#1e1e1e" text-anchor="middle" style="white-space: pre;" direction="ltr"
            dominant-baseline="text-before-edge">AccessibilityText, </text>
        <text x="111.328125" y="48" font-family="Cascadia, Segoe UI Emoji" font-size="20px"
            fill="#1e1e1e" text-anchor="middle" style="white-space: pre;" direction="ltr"
            dominant-baseline="text-before-edge">ClassName, etc.</text>
    </g>
    <g stroke-linecap="round">
        <g
            transform="translate(1722.8813499715202 1283.3066969793383) rotate(0 -24.681440978130013 33.77460344375709)">
            <path
                d="M1.12 0.14 C-7.25 11.59, -42.02 56.58, -50.47 67.78 M0.24 -0.83 C-7.75 10.31, -39.89 54.21, -48.34 65.78"
                stroke="#1e1e1e" stroke-width="2" fill="none"></path>
        </g>
        <g
            transform="translate(1722.8813499715202 1283.3066969793383) rotate(0 -24.681440978130013 33.77460344375709)">
            <path
                d="M-41.38 41.77 C-43.26 46.72, -45.06 54.97, -48.34 65.78 M-41.38 41.77 C-43.42 48.85, -44.37 55.78, -48.34 65.78"
                stroke="#1e1e1e" stroke-width="2" fill="none"></path>
        </g>
        <g
            transform="translate(1722.8813499715202 1283.3066969793383) rotate(0 -24.681440978130013 33.77460344375709)">
            <path
                d="M-27.57 51.86 C-33.25 54.11, -38.91 59.54, -48.34 65.78 M-27.57 51.86 C-33.59 55.97, -38.48 60.01, -48.34 65.78"
                stroke="#1e1e1e" stroke-width="2" fill="none"></path>
        </g>
    </g>
    <mask></mask>
    <g transform="translate(1707.9288125058933 1297.5959522824646) rotate(0 5.859375 12)">
        <text x="5.859375" y="0" font-family="Cascadia, Segoe UI Emoji" font-size="20px"
            fill="#1e1e1e" text-anchor="middle" style="white-space: pre;" direction="ltr"
            dominant-baseline="text-before-edge">n</text>
    </g>
    <g stroke-linecap="round">
        <g
            transform="translate(1157.481498090934 122.88941098691993) rotate(0 70.1472533062647 0.6495116046876461)">
            <path
                d="M-0.57 0.76 C22.61 0.83, 116.68 0.93, 140.19 0.92 M1.33 0.11 C24.25 0.3, 116.11 2, 139.18 2.26"
                stroke="#1e1e1e" stroke-width="2" fill="none"></path>
        </g>
        <g
            transform="translate(1157.481498090934 122.88941098691993) rotate(0 70.1472533062647 0.6495116046876461)">
            <path
                d="M115.56 10.45 C126.05 7.18, 133.41 4.43, 139.18 2.26 M115.56 10.45 C121.1 7.76, 127.17 6.64, 139.18 2.26"
                stroke="#1e1e1e" stroke-width="2" fill="none"></path>
        </g>
        <g
            transform="translate(1157.481498090934 122.88941098691993) rotate(0 70.1472533062647 0.6495116046876461)">
            <path
                d="M115.82 -6.65 C126.29 -3.22, 133.55 0.73, 139.18 2.26 M115.82 -6.65 C121.18 -5.1, 127.19 -1.98, 139.18 2.26"
                stroke="#1e1e1e" stroke-width="2" fill="none"></path>
        </g>
    </g>
    <mask></mask>
    <g transform="translate(1117.2117786003014 56.639227308781145) rotate(0 105.46875 12)">
        <text x="0" y="0" font-family="Cascadia, Segoe UI Emoji" font-size="20px" fill="#1e1e1e"
            text-anchor="start" style="white-space: pre;" direction="ltr"
            dominant-baseline="text-before-edge">Use n instances of</text>
    </g>
    <g stroke-linecap="round"
        transform="translate(1088.6332679940451 94.31090038066401) rotate(0 33.12509183906923 26.629975792193022)">
        <path
            d="M13.31 0 C23.81 -1.35, 37.18 -0.81, 52.94 0 M13.31 0 C22.56 -0.4, 31.64 -0.91, 52.94 0 M52.94 0 C63.28 -0.88, 65.51 5.84, 66.25 13.31 M52.94 0 C63.66 0.02, 64.94 5.2, 66.25 13.31 M66.25 13.31 C65.56 22.97, 68.13 30.64, 66.25 39.94 M66.25 13.31 C66 20.53, 66.73 29.8, 66.25 39.94 M66.25 39.94 C65.03 48.52, 63.01 53.61, 52.94 53.26 M66.25 39.94 C64.1 48.31, 62.83 53.75, 52.94 53.26 M52.94 53.26 C39.16 53.36, 21.27 51.2, 13.31 53.26 M52.94 53.26 C37.17 53.89, 21.52 53.1, 13.31 53.26 M13.31 53.26 C6.01 54.62, 1.22 49.17, 0 39.94 M13.31 53.26 C5.2 52.01, 2.18 48.63, 0 39.94 M0 39.94 C-0.03 28.88, 1.26 19.51, 0 13.31 M0 39.94 C-0.25 29.19, -0.96 19.34, 0 13.31 M0 13.31 C-0.2 5.61, 2.49 1.05, 13.31 0 M0 13.31 C-0.07 5.69, 4.36 2.27, 13.31 0"
            stroke="#1e1e1e" stroke-width="2" fill="none"></path>
    </g>
    <g transform="translate(1115.8989848331144 108.94087617285703) rotate(0 5.859375 12)">
        <text x="5.859375" y="0" font-family="Cascadia, Segoe UI Emoji" font-size="20px"
            fill="#1e1e1e" text-anchor="middle" style="white-space: pre;" direction="ltr"
            dominant-baseline="text-before-edge">A</text>
    </g>
    <g stroke-linecap="round"
        transform="translate(1298.4255163081516 91.06334235722579) rotate(0 33.12509183906923 26.629975792193022)">
        <path
            d="M13.31 0 C21.51 -0.17, 32.66 -0.67, 52.94 0 M13.31 0 C24.9 -0.14, 34.64 1, 52.94 0 M52.94 0 C63.42 0.01, 65.11 5.1, 66.25 13.31 M52.94 0 C63.21 0.31, 64.57 3.6, 66.25 13.31 M66.25 13.31 C66.64 21.33, 65.09 28.91, 66.25 39.94 M66.25 13.31 C65.77 18.58, 66.98 24.33, 66.25 39.94 M66.25 39.94 C64.38 48.38, 62.69 53.69, 52.94 53.26 M66.25 39.94 C68.4 48.9, 59.97 55.34, 52.94 53.26 M52.94 53.26 C41.93 51.27, 27.52 51.97, 13.31 53.26 M52.94 53.26 C39.37 53.88, 24.84 53.37, 13.31 53.26 M13.31 53.26 C5.1 52.17, 1.9 48.65, 0 39.94 M13.31 53.26 C5.96 51.67, 1.66 48.57, 0 39.94 M0 39.94 C1.6 35.7, -1.39 27.51, 0 13.31 M0 39.94 C0.09 33.73, -0.79 26.87, 0 13.31 M0 13.31 C-0.06 5.52, 4.37 1.97, 13.31 0 M0 13.31 C0.15 4.31, 2.14 -1.44, 13.31 0"
            stroke="#1e1e1e" stroke-width="2" fill="none"></path>
    </g>
    <g transform="translate(1325.6912331472208 105.69331814941881) rotate(0 5.859375 12)">
        <text x="5.859375" y="0" font-family="Cascadia, Segoe UI Emoji" font-size="20px"
            fill="#1e1e1e" text-anchor="middle" style="white-space: pre;" direction="ltr"
            dominant-baseline="text-before-edge">B</text>
    </g>
    <g transform="translate(1213.000969733916 94.96041198535158) rotate(0 5.859375 12)">
        <text x="5.859375" y="0" font-family="Cascadia, Segoe UI Emoji" font-size="20px"
            fill="#1e1e1e" text-anchor="middle" style="white-space: pre;" direction="ltr"
            dominant-baseline="text-before-edge">n</text>
    </g>
    <g stroke-linecap="round">
        <g
            transform="translate(1057.755121557287 987.3995520977135) rotate(0 -158.94831604522597 126.45047909337927)">
            <path
                d="M-0.31 -0.81 C-48.38 3.44, -234.3 -15.71, -287.29 26.71 C-340.29 69.14, -313.23 216.19, -318.28 253.74 M1.73 1.37 C-46.09 5.84, -231.71 -16.54, -285.2 25.21 C-338.7 66.95, -313.91 213.93, -319.24 251.84"
                stroke="#1e1e1e" stroke-width="2" fill="none"></path>
        </g>
        <g
            transform="translate(1057.755121557287 987.3995520977135) rotate(0 -158.94831604522597 126.45047909337927)">
            <path
                d="M-327.96 228.41 C-325.65 235.7, -318.91 246.27, -319.24 251.84 M-327.96 228.41 C-324.05 236.73, -321.35 246.59, -319.24 251.84"
                stroke="#1e1e1e" stroke-width="2" fill="none"></path>
        </g>
        <g
            transform="translate(1057.755121557287 987.3995520977135) rotate(0 -158.94831604522597 126.45047909337927)">
            <path
                d="M-310.86 228.29 C-315.29 235.58, -315.29 246.2, -319.24 251.84 M-310.86 228.29 C-313.28 236.53, -316.92 246.43, -319.24 251.84"
                stroke="#1e1e1e" stroke-width="2" fill="none"></path>
        </g>
    </g>
    <mask></mask>
    <g stroke-linecap="round"
        transform="translate(631.8655132784415 1245.2751243911866) rotate(0 111.41939827005922 46.48171216174251)">
        <path
            d="M23.24 0 C61.4 0, 99.55 0, 199.6 0 C215.09 0, 222.84 7.75, 222.84 23.24 C222.84 36.23, 222.84 49.22, 222.84 69.72 C222.84 85.22, 215.09 92.96, 199.6 92.96 C154.36 92.96, 109.12 92.96, 23.24 92.96 C7.75 92.96, 0 85.22, 0 69.72 C0 56.54, 0 43.36, 0 23.24 C0 7.75, 7.75 0, 23.24 0"
            stroke="none" stroke-width="0" fill="#d0bfff"></path>
        <path
            d="M23.24 0 C62.21 0, 101.19 0, 199.6 0 M199.6 0 C215.09 0, 222.84 7.75, 222.84 23.24 M222.84 23.24 C222.84 32.66, 222.84 42.08, 222.84 69.72 M222.84 69.72 C222.84 85.22, 215.09 92.96, 199.6 92.96 M199.6 92.96 C148.17 92.96, 96.75 92.96, 23.24 92.96 M23.24 92.96 C7.75 92.96, 0 85.22, 0 69.72 M0 69.72 C0 55.62, 0 41.52, 0 23.24 M0 23.24 C0 7.75, 7.75 0, 23.24 0"
            stroke="#1e1e1e" stroke-width="2.5" fill="none" stroke-dasharray="8 10"></path>
    </g>
    <g transform="translate(667.113036548501 1279.7568365529291) rotate(0 76.171875 12)">
        <text x="76.171875" y="0" font-family="Cascadia, Segoe UI Emoji" font-size="20px"
            fill="#1e1e1e" text-anchor="middle" style="white-space: pre;" direction="ltr"
            dominant-baseline="text-before-edge">Action Hasher</text>
    </g>
    <g stroke-linecap="round">
        <g
            transform="translate(737.9080477554585 1418.4044004386933) rotate(0 1.0163457194194052 -37.83510559715887)">
            <path
                d="M1.2 0.08 C1.56 -12.54, 1.45 -63.89, 1.59 -76.42 M0.37 -0.93 C0.58 -13.35, 0.26 -62.57, 0.41 -75.27"
                stroke="#1e1e1e" stroke-width="2" fill="none"></path>
        </g>
        <g
            transform="translate(737.9080477554585 1418.4044004386933) rotate(0 1.0163457194194052 -37.83510559715887)">
            <path d="M2.22 -73.79 L7.8 -62.28 L-4.18 -59.97 L-1.24 -73.33" stroke="none"
                stroke-width="0" fill="#1e1e1e" fill-rule="evenodd"></path>
            <path
                d="M0.41 -75.27 C2.01 -72.48, 2.56 -68.53, 6.73 -61.67 M0.41 -75.27 C3.42 -71.26, 4.77 -65.21, 6.73 -61.67 M6.73 -61.67 C3.07 -61.75, 0.79 -60.92, -5.95 -61.69 M6.73 -61.67 C3.34 -61.23, 0.14 -62.19, -5.95 -61.69 M-5.95 -61.69 C-4.7 -64.02, -1.58 -69.36, 0.41 -75.27 M-5.95 -61.69 C-3.65 -65.58, -1.12 -71.18, 0.41 -75.27 M0.41 -75.27 C0.41 -75.27, 0.41 -75.27, 0.41 -75.27 M0.41 -75.27 C0.41 -75.27, 0.41 -75.27, 0.41 -75.27"
                stroke="#1e1e1e" stroke-width="2" fill="none"></path>
        </g>
    </g>
    <mask></mask>
    <g stroke-linecap="round"
        transform="translate(635.2832862315099 1419.4810301125344) rotate(0 111.41939827005922 46.48171216174251)">
        <path
            d="M23.24 0 C83 0, 142.77 0, 199.6 0 C215.09 0, 222.84 7.75, 222.84 23.24 C222.84 33.59, 222.84 43.93, 222.84 69.72 C222.84 85.22, 215.09 92.96, 199.6 92.96 C133.26 92.96, 66.93 92.96, 23.24 92.96 C7.75 92.96, 0 85.22, 0 69.72 C0 59.78, 0 49.83, 0 23.24 C0 7.75, 7.75 0, 23.24 0"
            stroke="none" stroke-width="0" fill="#d0bfff"></path>
        <path
            d="M23.24 0 C66.66 0, 110.08 0, 199.6 0 M23.24 0 C65.76 0, 108.28 0, 199.6 0 M199.6 0 C215.09 0, 222.84 7.75, 222.84 23.24 M199.6 0 C215.09 0, 222.84 7.75, 222.84 23.24 M222.84 23.24 C222.84 34.77, 222.84 46.29, 222.84 69.72 M222.84 23.24 C222.84 35.34, 222.84 47.43, 222.84 69.72 M222.84 69.72 C222.84 85.22, 215.09 92.96, 199.6 92.96 M222.84 69.72 C222.84 85.22, 215.09 92.96, 199.6 92.96 M199.6 92.96 C129.5 92.96, 59.4 92.96, 23.24 92.96 M199.6 92.96 C156.85 92.96, 114.1 92.96, 23.24 92.96 M23.24 92.96 C7.75 92.96, 0 85.22, 0 69.72 M23.24 92.96 C7.75 92.96, 0 85.22, 0 69.72 M0 69.72 C0 51.89, 0 34.05, 0 23.24 M0 69.72 C0 60.23, 0 50.73, 0 23.24 M0 23.24 C0 7.75, 7.75 0, 23.24 0 M0 23.24 C0 7.75, 7.75 0, 23.24 0"
            stroke="#1e1e1e" stroke-width="2" fill="none"></path>
    </g>
    <g transform="translate(658.8120595015694 1441.962742274277) rotate(0 87.890625 24)">
        <text x="87.890625" y="0" font-family="Cascadia, Segoe UI Emoji" font-size="20px"
            fill="#1e1e1e" text-anchor="middle" style="white-space: pre;" direction="ltr"
            dominant-baseline="text-before-edge">Tree Direction </text>
        <text x="87.890625" y="24" font-family="Cascadia, Segoe UI Emoji" font-size="20px"
            fill="#1e1e1e" text-anchor="middle" style="white-space: pre;" direction="ltr"
            dominant-baseline="text-before-edge">Hasher</text>
    </g>
    <g stroke-linecap="round">
        <g
            transform="translate(489.50139511576776 851.7210291631447) rotate(0 673.5031361814985 -2.3024095319013327)">
            <path d="M0 0 C224.5 -0.77, 1122.51 -3.84, 1347.01 -4.6" stroke="#1971c2"
                stroke-width="2.5" fill="none" stroke-dasharray="8 10"></path>
        </g>
    </g>
    <mask></mask>
    <g stroke-linecap="round">
        <g
            transform="translate(490.2333236265081 867.4186196312434) rotate(0 674.8861935039845 0.46370511307094375)">
            <path d="M0 0 C224.96 0.15, 1124.81 0.77, 1349.77 0.93" stroke="#1971c2"
                stroke-width="2.5" fill="none" stroke-dasharray="8 10"></path>
        </g>
    </g>
    <mask></mask>
    <g transform="translate(518.6143799875244 897.3499435459606) rotate(0 152.34375 36)">
        <text x="0" y="0" font-family="Cascadia, Segoe UI Emoji" font-size="20px" fill="#1e1e1e"
            text-anchor="start" style="white-space: pre;" direction="ltr"
            dominant-baseline="text-before-edge">Selection Logic</text>
        <text x="0" y="24" font-family="Cascadia, Segoe UI Emoji" font-size="20px" fill="#1e1e1e"
            text-anchor="start" style="white-space: pre;" direction="ltr"
            dominant-baseline="text-before-edge">Model Building</text>
        <text x="0" y="48" font-family="Cascadia, Segoe UI Emoji" font-size="20px" fill="#1e1e1e"
            text-anchor="start" style="white-space: pre;" direction="ltr"
            dominant-baseline="text-before-edge">Concrete Search Algorithms</text>
    </g>
    <g transform="translate(521.3445360936485 236.55840789028065) rotate(0 128.90625 36)">
        <text x="0" y="0" font-family="Cascadia, Segoe UI Emoji" font-size="20px" fill="#1e1e1e"
            text-anchor="start" style="white-space: pre;" direction="ltr"
            dominant-baseline="text-before-edge">Interaction w/ Device </text>
        <text x="0" y="24" font-family="Cascadia, Segoe UI Emoji" font-size="20px" fill="#1e1e1e"
            text-anchor="start" style="white-space: pre;" direction="ltr"
            dominant-baseline="text-before-edge">Device Specific Logic</text>
        <text x="0" y="48" font-family="Cascadia, Segoe UI Emoji" font-size="20px" fill="#1e1e1e"
            text-anchor="start" style="white-space: pre;" direction="ltr"
            dominant-baseline="text-before-edge">Execution Process</text>
    </g>
    <g transform="translate(70.04358405451626 231.95358882647776) rotate(0 111.328125 24)">
        <text x="0" y="0" font-family="Cascadia, Segoe UI Emoji" font-size="20px" fill="#1e1e1e"
            text-anchor="start" style="white-space: pre;" direction="ltr"
            dominant-baseline="text-before-edge">Suite Generator API</text>
        <text x="0" y="24" font-family="Cascadia, Segoe UI Emoji" font-size="20px" fill="#1e1e1e"
            text-anchor="start" style="white-space: pre;" direction="ltr"
            dominant-baseline="text-before-edge">CLI Command</text>
    </g>
    <g stroke-linecap="round"
        transform="translate(10 10.000000000000057) rotate(0 919.7331194533024 781.4273872046855)">
        <path
            d="M32 0 C509.96 0, 987.92 0, 1807.47 0 M32 0 C681.33 0, 1330.65 0, 1807.47 0 M1807.47 0 C1828.8 0, 1839.47 10.67, 1839.47 32 M1807.47 0 C1828.8 0, 1839.47 10.67, 1839.47 32 M1839.47 32 C1839.47 389.91, 1839.47 747.81, 1839.47 1530.85 M1839.47 32 C1839.47 578.91, 1839.47 1125.81, 1839.47 1530.85 M1839.47 1530.85 C1839.47 1552.19, 1828.8 1562.85, 1807.47 1562.85 M1839.47 1530.85 C1839.47 1552.19, 1828.8 1562.85, 1807.47 1562.85 M1807.47 1562.85 C1198.32 1562.85, 589.18 1562.85, 32 1562.85 M1807.47 1562.85 C1348.2 1562.85, 888.93 1562.85, 32 1562.85 M32 1562.85 C10.67 1562.85, 0 1552.19, 0 1530.85 M32 1562.85 C10.67 1562.85, 0 1552.19, 0 1530.85 M0 1530.85 C0 953.09, 0 375.33, 0 32 M0 1530.85 C0 1203.87, 0 876.88, 0 32 M0 32 C0 10.67, 10.67 0, 32 0 M0 32 C0 10.67, 10.67 0, 32 0"
            stroke="#1e1e1e" stroke-width="4" fill="none"></path>
    </g>
</svg>